<?xml version="1.0" encoding="utf-8"?>
<svg xmlns="http://www.w3.org/2000/svg" width="125" height="125" >
<defs id="SvgjsDefs1025"><linearGradient id="SvgjsLinearGradient1032">
<stop id="SvgjsStop1033" stop-color="#905e26" offset="0"></stop><stop id="SvgjsStop1034" stop-color="#f5ec9b" offset="0.5"></stop>
<stop id="SvgjsStop1035" stop-color="#905e26" offset="1"></stop></linearGradient><linearGradient id="SvgjsLinearGradient1036">
<stop id="SvgjsStop1037" stop-color="#905e26" offset="0"></stop><stop id="SvgjsStop1038" stop-color="#f5ec9b" offset="0.5"></stop>
<stop id="SvgjsStop1039" stop-color="#905e26" offset="1"></stop></linearGradient><linearGradient id="SvgjsLinearGradient1040">
<stop id="SvgjsStop1041" stop-color="#905e26" offset="0"></stop><stop id="SvgjsStop1042" stop-color="#f5ec9b" offset="0.5"></stop>
<stop id="SvgjsStop1043" stop-color="#905e26" offset="1"></stop></linearGradient></defs>
<g id="SvgjsG1026" featurekey="rZF8Vg-0" transform="matrix(1.5263910293579102,0,0,1.5263910293579102,97.80807283650029,-20.606281786226734)" fill="url(#SvgjsLinearGradient1032)">
<path xmlns="http://www.w3.org/2000/svg" transform="scale(-1,1) translate(-50,20) rotate(-20)" d="M88.9,83.3c-0.5-1.9-0.9-3.7-1.5-5.5c-0.6-1.8-1.2-3.6-1.9-5.4c-0.7-1.8-1.5-3.5-2.3-5.2c-0.8-1.7-1.7-3.4-2.6-5  c-0.9-1.7-1.9-3.3-2.9-4.9c-1-1.6-2-3.2-3.1-4.7c-2.1-3.1-4.5-6-6.9-8.8c-2.4-2.8-4.9-5.6-7.5-8.2c-2.6-2.6-5.3-5.2-7.9-7.7  c-5.4-5-11-9.7-16.6-14.4c2.4,2.8,4.8,5.5,7.2,8.3l7.2,8.2c2.4,2.7,4.7,5.5,7,8.3c2.3,2.8,4.5,5.7,6.6,8.6c2.1,2.9,4,5.9,5.9,8.9  c0.9,1.5,1.8,3,2.7,4.6c0.8,1.6,1.7,3.1,2.4,4.7c0.8,1.6,1.5,3.2,2.1,4.8c0.3,0.7,0.6,1.4,0.8,2.2l-3.1-2.9c-4.4-4-8.8-8-13.3-11.9  c-4.5-3.9-9.1-7.7-14-11.4c-2.4-1.8-4.9-3.6-7.7-5.3c-1.4-0.8-2.8-1.6-4.5-2.3c-0.9-0.4-1.8-0.7-3-0.9c-0.6-0.1-1.3-0.2-2.3-0.1  c-0.9,0.1-2.3,0.5-3.3,1.5l-0.1,0.1c-1.2,1.1-1.6,2.9-0.9,4.4c2.5,5.9,5.1,11.8,8.4,17.6c0.6,1.1,1.3,2.3,2,3.4  c-1-0.4-1.9-0.8-2.9-1.1c-3-1.1-6-2-9-2.8c-3-0.8-6-1.5-9-2.2l-0.1,0c-0.4-0.1-0.8,0-1.1,0.3c-0.7,0.7-1,1.7-1.1,2.6  c-0.1,0.9,0.1,1.7,0.3,2.5c0.4,1.5,1.1,2.8,1.8,4.1c1.5,2.5,3.3,4.7,5.1,6.9c-1.4-2.5-2.8-5-3.9-7.5c-0.5-1.3-1-2.6-1.2-3.9  c-0.1-0.6-0.1-1.2,0-1.8c0.1-0.2,0.1-0.4,0.2-0.6c2.6,1,5.3,1.9,7.9,3c1.4,0.6,2.8,1.2,4.2,1.7c1.4,0.6,2.8,1.2,4.1,1.8  c2.7,1.3,5.4,2.7,7.8,4.3c1.2,0.8,2.4,1.6,3.5,2.5c1.1,0.9,2.2,1.8,3.2,2.8c1.1,1.1,3,1.2,4.2,0.1c1.3-1.1,1.4-3.1,0.3-4.4l-0.1-0.2  c-1-1.1-1.9-2.3-2.8-3.5c-0.9-1.2-1.7-2.5-2.5-3.7c-0.8-1.3-1.6-2.6-2.3-3.9c-0.7-1.3-1.5-2.7-2.1-4.1c-1.4-2.7-2.6-5.6-3.9-8.4  c-0.1-0.2-0.1-0.3-0.2-0.5c1.9,1.3,3.9,2.7,5.8,4.2c4.6,3.5,9.1,7.3,13.5,11.1c4.5,3.8,8.9,7.7,13.3,11.6l6.7,5.9l3.4,2.9  c1.2,1,2.2,1.9,3.6,3l0.1,0.1c0.9,0.7,2,0.9,3.2,0.7C88.1,87.4,89.4,85.3,88.9,83.3z"></path>
</g>
</svg>